<svg width="200" height="45" viewBox="0 0 200 45" fill="none" xmlns="http://www.w3.org/2000/svg">
<path fill-rule="evenodd" clip-rule="evenodd" d="M18.9238 4.21875C18.9238 1.8888 21.3366 0 24.313 0H44.0487C48.1047 0 51.9883 0.394929 55.6738 1.21235C59.4819 2.01719 62.9192 3.33864 65.9074 5.20652C68.997 7.0977 71.3842 9.51944 73.097 12.3768C74.8965 15.3787 75.6898 18.7877 75.6898 22.4706C75.6898 26.2671 74.8734 29.7685 73.0063 32.8268L72.983 32.865L72.9588 32.9027C71.148 35.7221 68.7255 38.1142 65.6566 39.987L65.6354 40L65.614 40.0127C62.5858 41.8231 59.1378 43.1144 55.3378 43.9135L55.2993 43.9216L55.2606 43.9292C51.6366 44.6465 47.8949 45 44.0487 45H24.313C21.3366 45 18.9238 43.1112 18.9238 40.7812C18.9238 38.4513 21.3366 36.5625 24.313 36.5625H44.0487C47.0299 36.5625 49.8691 36.2906 52.5794 35.7569C55.0988 35.2234 57.2339 34.4024 59.0505 33.32C60.7202 32.2971 62.1492 30.9372 63.304 29.1514C64.2992 27.5039 64.9114 25.3252 64.9114 22.4706C64.9114 19.7162 64.3164 17.5907 63.3396 15.9611C62.2811 14.1953 60.9095 12.8549 59.2529 11.8439L59.2254 11.8271L59.1981 11.81C57.4431 10.7101 55.35 9.88089 52.8389 9.35283L52.8007 9.3448L52.7627 9.33632C50.1133 8.74639 47.2172 8.4375 44.0487 8.4375H24.313C21.3366 8.4375 18.9238 6.5487 18.9238 4.21875Z" fill="#7F91BE"/>
<path fill-rule="evenodd" clip-rule="evenodd" d="M81.4382 4.21875C81.4382 1.8888 83.851 0 86.8274 0H133.534C136.51 0 138.923 1.8888 138.923 4.21875C138.923 6.5487 136.51 8.4375 133.534 8.4375H86.8274C83.851 8.4375 81.4382 6.5487 81.4382 4.21875ZM81.4382 22.5C81.4382 20.17 83.851 18.2812 86.8274 18.2812H133.534C136.51 18.2812 138.923 20.17 138.923 22.5C138.923 24.8299 136.51 26.7187 133.534 26.7187H86.8274C83.851 26.7187 81.4382 24.8299 81.4382 22.5ZM81.4382 40.7812C81.4382 38.4513 83.851 36.5625 86.8274 36.5625H133.534C136.51 36.5625 138.923 38.4513 138.923 40.7812C138.923 43.1112 136.51 45 133.534 45H86.8274C83.851 45 81.4382 43.1112 81.4382 40.7812Z" fill="#4F4F4F"/>
<path fill-rule="evenodd" clip-rule="evenodd" d="M146.341 1.16603C148.494 -0.442123 151.906 -0.379042 153.96 1.30693L172.336 16.3877L190.711 1.30693C192.765 -0.379042 196.177 -0.442123 198.33 1.16603C200.484 2.77419 200.565 5.44461 198.51 7.13058L179.783 22.5L198.51 37.8694C200.565 39.5554 200.484 42.2258 198.33 43.834C196.177 45.4421 192.765 45.379 190.711 43.6931L172.336 28.6123L153.96 43.6931C151.906 45.379 148.494 45.4421 146.341 43.834C144.187 42.2258 144.106 39.5554 146.161 37.8694L164.888 22.5L146.161 7.13058C144.106 5.44461 144.187 2.77419 146.341 1.16603Z" fill="#F8BD52"/>
<path d="M0 29.5312V15.1537H7.78627C8.6313 15.1537 9.40734 15.2955 10.1144 15.579C10.8387 15.849 11.4595 16.2135 11.9769 16.6725C12.4943 17.118 12.8995 17.631 13.1927 18.2115C13.4859 18.7785 13.6324 19.3522 13.6324 19.9327C13.6324 20.5402 13.4945 21.1342 13.2186 21.7147C12.9426 22.2817 12.5546 22.788 12.0545 23.2335C11.5544 23.679 10.9508 24.0367 10.2437 24.3067C9.53668 24.5767 8.76064 24.7117 7.91561 24.7117H3.56979V29.5312H0ZM3.56979 22.2615H7.70867C8.36399 22.2615 8.90722 22.0522 9.33835 21.6337C9.78673 21.2152 10.0109 20.6482 10.0109 19.9327C10.0109 19.5682 9.94194 19.2442 9.80398 18.9607C9.66602 18.6637 9.48494 18.414 9.26075 18.2115C9.03656 18.009 8.76926 17.8605 8.45884 17.766C8.16567 17.658 7.86388 17.604 7.55346 17.604H3.56979V22.2615Z" fill="#4F4F4F"/>
<path d="M18.7038 29.5312V15.1537H26.8263C27.6714 15.1537 28.4474 15.2955 29.1545 15.579C29.8788 15.849 30.4996 16.2135 31.017 16.6725C31.5343 17.118 31.9396 17.631 32.2328 18.2115C32.5259 18.7785 32.6725 19.3522 32.6725 19.9327C32.6725 20.8642 32.3707 21.7147 31.7671 22.4842C31.1808 23.2402 30.3789 23.787 29.3614 24.1245L33.552 29.5312H29.5425L25.7916 24.7117H22.2736V29.5312H18.7038ZM22.2736 22.2615H26.7487C27.0764 22.2615 27.3782 22.2007 27.6541 22.0792C27.9473 21.9577 28.1974 21.7957 28.4043 21.5932C28.6112 21.3772 28.7751 21.1275 28.8958 20.844C29.0165 20.5605 29.0769 20.2567 29.0769 19.9327C29.0769 19.5952 29.0079 19.2847 28.8699 19.0012C28.732 18.7177 28.5423 18.4747 28.3008 18.2722C28.0766 18.0562 27.8093 17.8942 27.4989 17.7862C27.2057 17.6647 26.9039 17.604 26.5935 17.604H22.2736V22.2615Z" fill="#4F4F4F"/>
<path d="M46.3318 29.6325C44.9867 29.6325 43.7623 29.43 42.6586 29.025C41.5721 28.6065 40.6323 28.0597 39.839 27.3847C39.0629 26.6962 38.4593 25.9132 38.0282 25.0357C37.5971 24.1582 37.3815 23.2605 37.3815 22.3425C37.3815 21.384 37.6057 20.466 38.0541 19.5885C38.5197 18.711 39.1492 17.9347 39.9424 17.2597C40.753 16.5847 41.7101 16.0515 42.8138 15.66C43.9175 15.255 45.116 15.0525 46.4094 15.0525C47.7373 15.0525 48.9445 15.2685 50.031 15.7005C51.1347 16.119 52.0745 16.6725 52.8506 17.361C53.6266 18.0495 54.2302 18.8325 54.6613 19.71C55.0925 20.5875 55.308 21.4785 55.308 22.383C55.308 23.3415 55.0839 24.2595 54.6355 25.137C54.1871 26.001 53.5663 26.7705 52.773 27.4455C51.9797 28.107 51.0312 28.6402 49.9275 29.0452C48.8238 29.4367 47.6252 29.6325 46.3318 29.6325ZM41.003 22.3425C41.003 22.9635 41.1237 23.5642 41.3652 24.1447C41.6066 24.7252 41.9515 25.2382 42.3999 25.6837C42.8655 26.1292 43.426 26.487 44.0813 26.757C44.7539 27.027 45.5127 27.162 46.3577 27.162C47.22 27.162 47.9788 27.027 48.6341 26.757C49.3067 26.4735 49.8671 26.1022 50.3155 25.6432C50.7811 25.1842 51.126 24.6712 51.3502 24.1042C51.5917 23.5237 51.7124 22.9365 51.7124 22.3425C51.7124 21.7215 51.583 21.1207 51.3244 20.5402C51.0829 19.9597 50.7294 19.4467 50.2638 19.0012C49.8154 18.5557 49.2549 18.2047 48.5824 17.9482C47.927 17.6782 47.1855 17.5432 46.3577 17.5432C45.4954 17.5432 44.728 17.685 44.0555 17.9685C43.3829 18.2385 42.8224 18.603 42.374 19.062C41.9257 19.5075 41.5807 20.0205 41.3393 20.601C41.1151 21.168 41.003 21.7485 41.003 22.3425Z" fill="#4F4F4F"/>
</svg>
